<svg xmlns="http://www.w3.org/2000/svg" width="89" height="20" fill="none"><g clip-path="url(#a)"><path fill="url(#b)" fill-rule="evenodd" d="M17.546 14.521C18.208 12.61 19 9.468 19 5.361a5.309 5.309 0 0 0-1.632-3.792A5.625 5.625 0 0 0 13.458 0H5.542a5.625 5.625 0 0 0-3.91 1.569A5.309 5.309 0 0 0 0 5.36c0 4.108.792 7.25 1.454 9.164.864 2.479 2.043 4.372 3.23 5.192.264.184.58.284.904.284.401-.001.787-.15 1.08-.415a1.53 1.53 0 0 0 .504-1.018c.084-1.107.5-4.722 2.328-4.722 1.829 0 2.244 3.614 2.329 4.72.02.273.115.535.275.761.16.226.378.406.633.523a1.592 1.592 0 0 0 1.578-.136c1.19-.818 2.367-2.71 3.231-5.192Zm-6.288-1.64c.605-1.047-.158-1.895-.971-2.8-.745-.827-1.531-1.702-1.348-2.818.14-.85.85-1.392 1.517-1.9.787-.601 1.514-1.156 1.176-2.115-.555-1.576-3.082-1.664-4.154-1.701a20.567 20.567 0 0 1-.222-.009H5.542a4.018 4.018 0 0 0-2.79 1.119 3.792 3.792 0 0 0-1.17 2.703c0 3.9.744 6.865 1.37 8.667 1.094 3.14 2.277 4.17 2.634 4.423.308-3.964 1.695-6.144 3.913-6.144.662 0 1.25.195 1.758.573Zm5.405-5.065a.515.515 0 0 0 .093-.298.515.515 0 0 0-.34-.49l-1.689-.62-.626-1.688a.521.521 0 0 0-.977 0l-.622 1.687-1.689.625a.52.52 0 0 0 0 .976l1.69.621.625 1.687a.52.52 0 0 0 .977 0l.622-1.687 1.688-.622a.516.516 0 0 0 .248-.19Z" clip-rule="evenodd"/><path fill="#fff" d="M29.57 17c-.95 0-1.765-.236-2.445-.707-.68-.478-1.206-1.122-1.577-1.933-.365-.81-.548-1.725-.548-2.743 0-1.018.183-1.933.548-2.744.371-.81.897-1.448 1.577-1.913.68-.472 1.492-.707 2.436-.707.964 0 1.773.232 2.428.697.654.465 1.149 1.103 1.482 1.914.34.81.51 1.728.51 2.753 0 1.012-.17 1.926-.51 2.743-.333.811-.828 1.455-1.482 1.933-.655.471-1.461.707-2.418.707Zm.209-1.537c.686 0 1.25-.163 1.69-.49.44-.333.765-.789.973-1.367.214-.585.321-1.248.321-1.99 0-.753-.107-1.416-.321-1.988-.208-.579-.529-1.028-.963-1.349-.435-.326-.986-.49-1.653-.49-.693 0-1.266.17-1.719.51-.447.339-.78.798-1.001 1.376-.214.578-.321 1.225-.321 1.942 0 .723.11 1.376.33 1.96.22.579.551 1.038.992 1.377.447.34 1.004.51 1.672.51Zm2.984 1.254V9.222h-.189v-6.08h1.69v13.575h-1.501Z"/><path fill="url(#c)" d="M29.57 17c-.95 0-1.765-.236-2.445-.707-.68-.478-1.206-1.122-1.577-1.933-.365-.81-.548-1.725-.548-2.743 0-1.018.183-1.933.548-2.744.371-.81.897-1.448 1.577-1.913.68-.472 1.492-.707 2.436-.707.964 0 1.773.232 2.428.697.654.465 1.149 1.103 1.482 1.914.34.81.51 1.728.51 2.753 0 1.012-.17 1.926-.51 2.743-.333.811-.828 1.455-1.482 1.933-.655.471-1.461.707-2.418.707Zm.209-1.537c.686 0 1.25-.163 1.69-.49.44-.333.765-.789.973-1.367.214-.585.321-1.248.321-1.99 0-.753-.107-1.416-.321-1.988-.208-.579-.529-1.028-.963-1.349-.435-.326-.986-.49-1.653-.49-.693 0-1.266.17-1.719.51-.447.339-.78.798-1.001 1.376-.214.578-.321 1.225-.321 1.942 0 .723.11 1.376.33 1.96.22.579.551 1.038.992 1.377.447.34 1.004.51 1.672.51Zm2.984 1.254V9.222h-.189v-6.08h1.69v13.575h-1.501Z"/><path fill="#fff" d="M40.953 17c-1.002 0-1.877-.22-2.626-.66a4.627 4.627 0 0 1-1.738-1.857c-.415-.798-.623-1.729-.623-2.79 0-1.113.205-2.075.614-2.886.41-.817.979-1.445 1.71-1.885.736-.446 1.599-.67 2.587-.67 1.026 0 1.898.236 2.616.708.724.471 1.265 1.143 1.624 2.017.366.874.523 1.914.473 3.12h-1.7v-.603c-.02-1.25-.274-2.184-.765-2.8-.491-.622-1.222-.933-2.191-.933-1.04 0-1.83.333-2.37 1-.542.665-.813 1.62-.813 2.865 0 1.2.27 2.13.812 2.79.542.66 1.313.99 2.314.99.674 0 1.26-.153 1.757-.461.497-.308.887-.751 1.17-1.33l1.615.557c-.396.898-.994 1.596-1.794 2.093-.793.49-1.684.735-2.672.735Zm-3.769-4.902v-1.349h7.537v1.349h-7.537Z"/><path fill="url(#d)" d="M40.953 17c-1.002 0-1.877-.22-2.626-.66a4.627 4.627 0 0 1-1.738-1.857c-.415-.798-.623-1.729-.623-2.79 0-1.113.205-2.075.614-2.886.41-.817.979-1.445 1.71-1.885.736-.446 1.599-.67 2.587-.67 1.026 0 1.898.236 2.616.708.724.471 1.265 1.143 1.624 2.017.366.874.523 1.914.473 3.12h-1.7v-.603c-.02-1.25-.274-2.184-.765-2.8-.491-.622-1.222-.933-2.191-.933-1.04 0-1.83.333-2.37 1-.542.665-.813 1.62-.813 2.865 0 1.2.27 2.13.812 2.79.542.66 1.313.99 2.314.99.674 0 1.26-.153 1.757-.461.497-.308.887-.751 1.17-1.33l1.615.557c-.396.898-.994 1.596-1.794 2.093-.793.49-1.684.735-2.672.735Zm-3.769-4.902v-1.349h7.537v1.349h-7.537Z"/><path fill="#fff" d="M54.3 16.717v-5.1c0-.484-.044-.95-.132-1.396a3.493 3.493 0 0 0-.444-1.197 2.291 2.291 0 0 0-.85-.848c-.352-.208-.8-.311-1.341-.311a2.97 2.97 0 0 0-1.152.216 2.25 2.25 0 0 0-.878.642c-.246.289-.438.653-.577 1.093-.132.434-.198.946-.198 1.537l-1.105-.34c0-.986.177-1.832.53-2.536.358-.71.858-1.253 1.5-1.63.65-.384 1.411-.576 2.286-.576.661 0 1.225.104 1.69.311.467.208.854.484 1.162.83.309.34.551.723.727 1.15.177.421.3.852.369 1.292A7.2 7.2 0 0 1 56 11.089v5.628h-1.7Zm-7.272 0V6.535h1.511V9.26h.19v7.457h-1.7Z"/><path fill="url(#e)" d="M54.3 16.717v-5.1c0-.484-.044-.95-.132-1.396a3.493 3.493 0 0 0-.444-1.197 2.291 2.291 0 0 0-.85-.848c-.352-.208-.8-.311-1.341-.311a2.97 2.97 0 0 0-1.152.216 2.25 2.25 0 0 0-.878.642c-.246.289-.438.653-.577 1.093-.132.434-.198.946-.198 1.537l-1.105-.34c0-.986.177-1.832.53-2.536.358-.71.858-1.253 1.5-1.63.65-.384 1.411-.576 2.286-.576.661 0 1.225.104 1.69.311.467.208.854.484 1.162.83.309.34.551.723.727 1.15.177.421.3.852.369 1.292A7.2 7.2 0 0 1 56 11.089v5.628h-1.7Zm-7.272 0V6.535h1.511V9.26h.19v7.457h-1.7Z"/><path fill="#fff" d="M63.772 16.717a7.574 7.574 0 0 1-1.794.142 3.988 3.988 0 0 1-1.568-.35 2.25 2.25 0 0 1-1.048-1.017 3.009 3.009 0 0 1-.33-1.217 46.716 46.716 0 0 1-.02-1.404V3.707h1.682v9.088c0 .415.003.77.009 1.066a1.7 1.7 0 0 0 .198.763c.227.402.586.638 1.077.707.497.07 1.095.05 1.794-.056v1.442Zm-6.828-8.796V6.535h6.828v1.386h-6.828Z"/><path fill="url(#f)" d="M63.772 16.717a7.574 7.574 0 0 1-1.794.142 3.988 3.988 0 0 1-1.568-.35 2.25 2.25 0 0 1-1.048-1.017 3.009 3.009 0 0 1-.33-1.217 46.716 46.716 0 0 1-.02-1.404V3.707h1.682v9.088c0 .415.003.77.009 1.066a1.7 1.7 0 0 0 .198.763c.227.402.586.638 1.077.707.497.07 1.095.05 1.794-.056v1.442Zm-6.828-8.796V6.535h6.828v1.386h-6.828Z"/><path fill="#fff" d="M65.654 4.735V3h1.681v1.735h-1.68Zm0 11.982V6.535h1.681v10.182h-1.68Z"/><path fill="url(#g)" d="M65.654 4.735V3h1.681v1.735h-1.68Zm0 11.982V6.535h1.681v10.182h-1.68Z"/><path fill="#fff" d="M77.053 16.717v-5.1a7.19 7.19 0 0 0-.132-1.396 3.495 3.495 0 0 0-.444-1.197 2.292 2.292 0 0 0-.85-.848c-.352-.208-.8-.311-1.34-.311a2.98 2.98 0 0 0-1.153.216 2.25 2.25 0 0 0-.878.642 3.09 3.09 0 0 0-.576 1.093c-.132.434-.199.946-.199 1.537l-1.104-.34c0-.986.176-1.832.529-2.536.358-.71.859-1.253 1.501-1.63.648-.384 1.41-.576 2.285-.576.662 0 1.225.104 1.691.311.466.208.853.484 1.162.83.308.34.55.723.727 1.15.176.421.299.852.368 1.292.076.434.113.845.113 1.235v5.628h-1.7Zm-7.271 0V6.535h1.51V9.26h.19v7.457h-1.7Z"/><path fill="url(#h)" d="M77.053 16.717v-5.1a7.19 7.19 0 0 0-.132-1.396 3.495 3.495 0 0 0-.444-1.197 2.292 2.292 0 0 0-.85-.848c-.352-.208-.8-.311-1.34-.311a2.98 2.98 0 0 0-1.153.216 2.25 2.25 0 0 0-.878.642 3.09 3.09 0 0 0-.576 1.093c-.132.434-.199.946-.199 1.537l-1.104-.34c0-.986.176-1.832.529-2.536.358-.71.859-1.253 1.501-1.63.648-.384 1.41-.576 2.285-.576.662 0 1.225.104 1.691.311.466.208.853.484 1.162.83.308.34.55.723.727 1.15.176.421.299.852.368 1.292.076.434.113.845.113 1.235v5.628h-1.7Zm-7.271 0V6.535h1.51V9.26h.19v7.457h-1.7Z"/><path fill="#fff" d="M83.73 17c-.762 0-1.4-.138-1.917-.415a2.968 2.968 0 0 1-1.162-1.112 3.024 3.024 0 0 1-.387-1.509c0-.534.101-.996.303-1.386a2.71 2.71 0 0 1 .868-.98 4.417 4.417 0 0 1 1.332-.622 15.231 15.231 0 0 1 1.624-.34 55.7 55.7 0 0 1 1.832-.273 209.9 209.9 0 0 0 1.729-.236l-.605.35c.02-.906-.163-1.575-.547-2.009-.378-.434-1.033-.65-1.965-.65-.617 0-1.158.14-1.624.424-.46.276-.784.729-.973 1.357l-1.596-.48c.246-.893.721-1.594 1.426-2.103.705-.509 1.634-.763 2.786-.763.926 0 1.719.166 2.38.5a2.906 2.906 0 0 1 1.436 1.489c.144.314.236.657.273 1.027.038.365.057.748.057 1.15v6.298h-1.492v-2.442l.35.227c-.385.823-.923 1.445-1.616 1.866-.686.422-1.523.632-2.512.632Zm.255-1.405c.605 0 1.127-.107 1.568-.32a3 3 0 0 0 1.077-.858c.27-.358.447-.748.528-1.17.095-.313.145-.662.151-1.046.013-.39.02-.688.02-.895l.585.254c-.548.076-1.086.148-1.615.217a39.7 39.7 0 0 0-1.502.226c-.472.076-.897.167-1.275.274a4.159 4.159 0 0 0-.783.34 1.78 1.78 0 0 0-.586.536c-.145.214-.217.481-.217.802 0 .276.07.54.208.792.144.251.365.456.66.613.303.157.696.235 1.181.235Z"/><path fill="url(#i)" d="M83.73 17c-.762 0-1.4-.138-1.917-.415a2.968 2.968 0 0 1-1.162-1.112 3.024 3.024 0 0 1-.387-1.509c0-.534.101-.996.303-1.386a2.71 2.71 0 0 1 .868-.98 4.417 4.417 0 0 1 1.332-.622 15.231 15.231 0 0 1 1.624-.34 55.7 55.7 0 0 1 1.832-.273 209.9 209.9 0 0 0 1.729-.236l-.605.35c.02-.906-.163-1.575-.547-2.009-.378-.434-1.033-.65-1.965-.65-.617 0-1.158.14-1.624.424-.46.276-.784.729-.973 1.357l-1.596-.48c.246-.893.721-1.594 1.426-2.103.705-.509 1.634-.763 2.786-.763.926 0 1.719.166 2.38.5a2.906 2.906 0 0 1 1.436 1.489c.144.314.236.657.273 1.027.038.365.057.748.057 1.15v6.298h-1.492v-2.442l.35.227c-.385.823-.923 1.445-1.616 1.866-.686.422-1.523.632-2.512.632Zm.255-1.405c.605 0 1.127-.107 1.568-.32a3 3 0 0 0 1.077-.858c.27-.358.447-.748.528-1.17.095-.313.145-.662.151-1.046.013-.39.02-.688.02-.895l.585.254c-.548.076-1.086.148-1.615.217a39.7 39.7 0 0 0-1.502.226c-.472.076-.897.167-1.275.274a4.159 4.159 0 0 0-.783.34 1.78 1.78 0 0 0-.586.536c-.145.214-.217.481-.217.802 0 .276.07.54.208.792.144.251.365.456.66.613.303.157.696.235 1.181.235Z"/></g><defs><linearGradient id="b" x1="9.5" x2="9.5" y1="0" y2="20" gradientUnits="userSpaceOnUse"><stop stop-color="#00A6F4" stop-opacity=".8"/><stop offset="1" stop-color="#00A6F4"/></linearGradient><linearGradient id="c" x1="57" x2="57" y1="3" y2="17" gradientUnits="userSpaceOnUse"><stop stop-color="#00A6F4" stop-opacity=".8"/><stop offset="1" stop-color="#00A6F4"/></linearGradient><linearGradient id="d" x1="57" x2="57" y1="3" y2="17" gradientUnits="userSpaceOnUse"><stop stop-color="#00A6F4" stop-opacity=".8"/><stop offset="1" stop-color="#00A6F4"/></linearGradient><linearGradient id="e" x1="57" x2="57" y1="3" y2="17" gradientUnits="userSpaceOnUse"><stop stop-color="#00A6F4" stop-opacity=".8"/><stop offset="1" stop-color="#00A6F4"/></linearGradient><linearGradient id="f" x1="57" x2="57" y1="3" y2="17" gradientUnits="userSpaceOnUse"><stop stop-color="#00A6F4" stop-opacity=".8"/><stop offset="1" stop-color="#00A6F4"/></linearGradient><linearGradient id="g" x1="57" x2="57" y1="3" y2="17" gradientUnits="userSpaceOnUse"><stop stop-color="#00A6F4" stop-opacity=".8"/><stop offset="1" stop-color="#00A6F4"/></linearGradient><linearGradient id="h" x1="57" x2="57" y1="3" y2="17" gradientUnits="userSpaceOnUse"><stop stop-color="#00A6F4" stop-opacity=".8"/><stop offset="1" stop-color="#00A6F4"/></linearGradient><linearGradient id="i" x1="57" x2="57" y1="3" y2="17" gradientUnits="userSpaceOnUse"><stop stop-color="#00A6F4" stop-opacity=".8"/><stop offset="1" stop-color="#00A6F4"/></linearGradient><clipPath id="a"><path fill="#fff" d="M0 0h89v20H0z"/></clipPath></defs></svg>