<svg xmlns="http://www.w3.org/2000/svg" width="64" height="64" fill="none"><path fill="url(#a)" fill-rule="evenodd" d="M55.889 45.564c1.986-5.734 4.361-15.16 4.361-27.483-.02-4.272-1.78-8.362-4.895-11.375C52.239 3.692 48.02 2 43.624 2h-23.75c-4.396 0-8.614 1.692-11.73 4.706C5.03 9.719 3.27 13.809 3.25 18.08c0 12.322 2.375 21.749 4.361 27.492 2.592 7.436 6.13 13.116 9.693 15.576.79.552 1.738.85 2.71.851a4.853 4.853 0 0 0 3.242-1.245 4.59 4.59 0 0 0 1.509-3.053c.252-3.323 1.499-14.166 6.985-14.166 5.486 0 6.733 10.84 6.986 14.157.062.82.347 1.608.826 2.285a4.743 4.743 0 0 0 1.899 1.57 4.777 4.777 0 0 0 4.735-.408c3.568-2.454 7.101-8.134 9.693-15.576Zm-18.865-4.923c1.815-3.14-.474-5.684-2.913-8.396-2.234-2.484-4.594-5.108-4.044-8.457.418-2.547 2.549-4.174 4.55-5.702 2.36-1.8 4.541-3.465 3.529-6.341C36.48 7.014 28.9 6.752 25.683 6.64a61.92 61.92 0 0 1-.665-.025h-5.143c-3.137 0-6.147 1.206-8.372 3.355C9.278 12.119 8.02 15.036 8 18.084c0 11.696 2.23 20.595 4.112 26 3.28 9.421 6.828 12.51 7.9 13.27.923-11.894 5.085-18.433 11.738-18.433 1.986 0 3.751.584 5.274 1.72ZM53.24 25.449c.184-.262.28-.574.279-.894a1.546 1.546 0 0 0-1.02-1.47l-5.066-1.864-1.877-5.06a1.56 1.56 0 0 0-1.466-1.022 1.564 1.564 0 0 0-1.467 1.021l-1.865 5.061-5.067 1.875a1.562 1.562 0 0 0-.742 2.358c.183.261.442.461.742.571l5.067 1.863 1.877 5.061a1.562 1.562 0 0 0 2.933 0l1.865-5.06 5.063-1.87a1.54 1.54 0 0 0 .744-.57Z" clip-rule="evenodd"/><defs><linearGradient id="a" x1="31.75" x2="31.75" y1="2" y2="62" gradientUnits="userSpaceOnUse"><stop stop-color="#00A6F4" stop-opacity=".8"/><stop offset="1" stop-color="#00A6F4"/></linearGradient></defs></svg>